<?xml version="1.0" encoding="iso-8859-1"?>
<!-- Generator: Adobe Illustrator 16.0.0, SVG Export Plug-In . SVG Version: 6.00 Build 0)  -->
<!DOCTYPE svg PUBLIC "-//W3C//DTD SVG 1.1//EN" "http://www.w3.org/Graphics/SVG/1.1/DTD/svg11.dtd">
<svg version="1.1" id="Capa_1" xmlns="http://www.w3.org/2000/svg" xmlns:xlink="http://www.w3.org/1999/xlink" x="0px" y="0px"
	 width="475.624px" height="475.624px" viewBox="0 0 475.624 475.624" style="enable-background:new 0 0 475.624 475.624;"
	 xml:space="preserve">
<g>
	<g>
		<path d="M460.864,161.412l-284.771,5.903c-3.142,0-6.045,0.998-8.432,2.677l-3.879-0.218c-9.239-0.519-20.237-4.681-24.58-9.303
			c-4.358-4.617-15.797-8.361-25.583-8.361H96.497l-5.55-16.398c-1.058-3.086-4.39-4.741-7.482-3.699
			c-3.102,1.05-4.751,4.396-3.703,7.482l32.466,95.916c5.273,15.515,11.13,41.888,8.354,57.253
			c-3.753-11.521-10.277-19.881-17.687-24.41c-8.909-5.43-18.699-5.089-25.591,0.882c-7.885,6.821-10.051,17.741-5.55,27.812
			c4.757,10.672,18.204,22.142,40.349,19.428c-0.1,6.172-0.94,12.94-2.737,20.238c-0.771,3.166,1.162,6.363,4.332,7.145
			c0.471,0.108,0.941,0.169,1.414,0.169c2.651,0,5.07-1.808,5.731-4.501c2.502-10.255,3.38-19.668,2.998-28.111
			c1.563-1.371,2.951-3.006,4.111-4.881c13.152-21.039-2.697-69.375-4.546-74.807l-7.229-21.354
			c7.572-1.515,15.138-4.841,18.56-8.484c4.34-4.619,15.793-8.359,25.567-8.359h6.472c2.549,2.086,5.753,3.396,9.317,3.396
			l284.771,5.903c8.159,0,14.76-12.511,14.76-20.652C475.616,173.917,469.023,161.412,460.864,161.412z M110.909,304.627
			c-15.919,2.031-25.252-5.466-28.384-12.503c-2.411-5.374-1.461-10.624,2.495-14.074c1.583-1.367,3.334-1.848,5.013-1.848
			c2.779,0,5.372,1.318,6.696,2.124c6.69,4.092,12.493,13.2,14.563,26.24C111.178,304.591,111.036,304.603,110.909,304.627z"/>
		<path d="M58.302,219.991l5.222,15.41c0.832,2.457,3.124,4.014,5.592,4.014c0.625,0,1.252-0.104,1.89-0.314
			c3.086-1.046,4.741-4.396,3.699-7.482L42.242,135.71c-1.052-3.086-4.39-4.741-7.484-3.699c-3.082,1.05-4.741,4.396-3.695,7.482
			l1.438,4.256H12.78c-3.258,0-5.896,2.637-5.896,5.895c0,3.266,2.637,5.903,5.896,5.903h23.716l2.486,7.38H5.903
			c-3.258,0-5.903,2.645-5.903,5.903s2.645,5.903,5.903,5.903H42.99l3.663,10.826H7.873c-3.274,0-5.911,2.641-5.911,5.907
			c0,3.258,2.637,5.903,5.911,5.903h42.771l3.673,10.824H9.836c-3.266,0-5.903,2.637-5.903,5.903c0,3.258,2.637,5.903,5.903,5.903
			h48.466V219.991z"/>
		<path d="M79.762,235.401c0.832,2.457,3.124,4.014,5.588,4.014c0.627,0,1.264-0.104,1.881-0.314
			c3.102-1.046,4.757-4.396,3.715-7.482L58.474,135.71c-1.05-3.086-4.384-4.741-7.47-3.699c-3.102,1.05-4.749,4.396-3.715,7.482
			L79.762,235.401z"/>
		<path d="M95.986,235.401c0.832,2.457,3.132,4.014,5.59,4.014c0.627,0,1.256-0.104,1.894-0.314
			c3.082-1.046,4.741-4.396,3.695-7.482l-32.46-95.907c-1.046-3.086-4.38-4.741-7.482-3.699c-3.085,1.05-4.741,4.396-3.699,7.482
			L95.986,235.401z"/>
	</g>
</g>
<g>
</g>
<g>
</g>
<g>
</g>
<g>
</g>
<g>
</g>
<g>
</g>
<g>
</g>
<g>
</g>
<g>
</g>
<g>
</g>
<g>
</g>
<g>
</g>
<g>
</g>
<g>
</g>
<g>
</g>
</svg>
